<svg id="eF56QS0KERi1" xmlns="http://www.w3.org/2000/svg" xmlns:xlink="http://www.w3.org/1999/xlink" viewBox="0 0 640 480" shape-rendering="geometricPrecision" text-rendering="geometricPrecision"><line id="eF56QS0KERi2" x1="66.380544" y1="-107.010014" x2="-66.380544" y2="107.010014" transform="matrix(1 0 0 1 206.123033 208.869814)" fill="none" stroke="rgb(0,116,217)" stroke-width="3"/><line id="eF56QS0KERi3" x1="66.380544" y1="-107.010014" x2="-66.380544" y2="107.010014" transform="matrix(1 0 0 1 206.123033 208.869814)" fill="none" stroke="rgb(0,116,217)" stroke-width="3"/><line id="eF56QS0KERi4" x1="66.380544" y1="-107.010014" x2="-66.380544" y2="107.010014" transform="matrix(1 0 0 1 206.123033 208.869814)" fill="none" stroke="rgb(0,116,217)" stroke-width="3"/><line id="eF56QS0KERi5" x1="66.380544" y1="-107.010014" x2="-66.380544" y2="107.010014" transform="matrix(1 0 0 1 206.123033 208.869814)" fill="none" stroke="rgb(0,116,217)" stroke-width="3"/><line id="eF56QS0KERi6" x1="-149.928469" y1="15.450643" x2="149.92847" y2="-15.450644" transform="matrix(1 0 0 1 289.670959 300.429185)" fill="none" stroke="rgb(0,116,217)" stroke-width="3"/><line id="eF56QS0KERi7" x1="-149.928469" y1="15.450643" x2="149.92847" y2="-15.450644" transform="matrix(1 0 0 1 289.670959 300.429185)" fill="none" stroke="rgb(0,116,217)" stroke-width="3"/><line id="eF56QS0KERi8" x1="-149.928469" y1="15.450643" x2="149.92847" y2="-15.450644" transform="matrix(1 0 0 1 289.670959 300.429185)" fill="none" stroke="rgb(0,116,217)" stroke-width="3"/><line id="eF56QS0KERi9" x1="-83.547926" y1="-91.559371" x2="83.547926" y2="91.559371" transform="matrix(1 0 0 1 356.051503 193.419171)" fill="none" stroke="rgb(0,116,217)" stroke-width="3"/><line id="eF56QS0KERi10" x1="-83.547926" y1="-91.559371" x2="83.547926" y2="91.559371" transform="matrix(1 0 0 1 356.051503 193.419171)" fill="none" stroke="rgb(0,116,217)" stroke-width="3"/><line id="eF56QS0KERi11" x1="-83.547926" y1="-91.559371" x2="83.547926" y2="91.559371" transform="matrix(1 0 0 1 356.051503 193.419171)" fill="none" stroke="rgb(0,116,217)" stroke-width="3"/><line id="eF56QS0KERi12" x1="-18.88412" y1="-125.894134" x2="18.88412" y2="125.894135" transform="matrix(1 0 0 1 291.387697 227.753935)" fill="none" stroke="rgb(0,116,217)" stroke-width="3"/><line id="eF56QS0KERi13" x1="-18.88412" y1="-125.894134" x2="18.88412" y2="125.894135" transform="matrix(1 0 0 1 291.387697 227.753935)" fill="none" stroke="rgb(0,116,217)" stroke-width="3"/><line id="eF56QS0KERi14" x1="-18.88412" y1="-125.894134" x2="18.88412" y2="125.894135" transform="matrix(1 0 0 1 291.387697 227.753935)" fill="none" stroke="rgb(0,116,217)" stroke-width="3"/><line id="eF56QS0KERi15" x1="-85.264664" y1="-18.884121" x2="85.264663" y2="18.884121" transform="matrix(1 0 0 1 225.007154 334.763949)" fill="none" stroke="rgb(0,116,217)" stroke-width="3"/><line id="eF56QS0KERi16" x1="-85.264664" y1="-18.884121" x2="85.264663" y2="18.884121" transform="matrix(1 0 0 1 225.007154 334.763949)" fill="none" stroke="rgb(0,116,217)" stroke-width="3"/><line id="eF56QS0KERi17" x1="-85.264664" y1="-18.884121" x2="85.264663" y2="18.884121" transform="matrix(1 0 0 1 225.007154 334.763949)" fill="none" stroke="rgb(0,116,217)" stroke-width="3"/><line id="eF56QS0KERi18" x1="-64.663806" y1="34.334764" x2="64.663806" y2="-34.334764" transform="matrix(1 0 0 1 374.935623 319.313306)" fill="none" stroke="rgb(0,116,217)" stroke-width="3"/><line id="eF56QS0KERi19" x1="-64.663806" y1="34.334764" x2="64.663806" y2="-34.334764" transform="matrix(1 0 0 1 374.935623 319.313306)" fill="none" stroke="rgb(0,116,217)" stroke-width="3"/><line id="eF56QS0KERi20" x1="-64.663806" y1="34.334764" x2="64.663806" y2="-34.334764" transform="matrix(1 0 0 1 374.935623 319.313306)" fill="none" stroke="rgb(0,116,217)" stroke-width="3"/><g id="eF56QS0KERi21" transform="matrix(1 0 0 1 0.000001 0.000001)" paint-order="fill markers stroke"><line id="eF56QS0KERi22" x1="-149.928469" y1="15.450643" x2="149.92847" y2="-15.450644" transform="matrix(1 0 0 1 289.670959 300.429185)" fill="none" stroke="rgb(0,116,217)" stroke-width="3"/></g><line id="eF56QS0KERi23" x1="-83.547926" y1="-91.559371" x2="83.547926" y2="91.559371" transform="matrix(1 0 0 1 356.051503 193.419171)" fill="none" stroke="rgb(0,116,217)" stroke-width="3"/><line id="eF56QS0KERi24" x1="-18.88412" y1="-125.894134" x2="18.88412" y2="125.894135" transform="matrix(1 0 0 1 291.387697 227.753935)" fill="none" stroke="rgb(0,116,217)" stroke-width="3"/><line id="eF56QS0KERi25" x1="-85.264664" y1="-18.884121" x2="85.264663" y2="18.884121" transform="matrix(1 0 0 1 225.007154 334.763949)" fill="none" stroke="rgb(0,116,217)" stroke-width="3"/><line id="eF56QS0KERi26" x1="-64.663806" y1="34.334764" x2="64.663806" y2="-34.334764" transform="matrix(1 0 0 1 374.935623 319.313306)" fill="none" stroke="rgb(0,116,217)" stroke-width="3"/></svg>